<svg width="20" height="20" viewBox="0 0 20 20" fill="none" xmlns="http://www.w3.org/2000/svg">
<path fill-rule="evenodd" clip-rule="evenodd" d="M11.2102 2.5429C11.5632 2.43603 11.9463 2.53211 12.2071 2.79289L17.2071 7.79289C17.4679 8.05367 17.564 8.43681 17.4571 8.78978C17.3502 9.14275 17.0578 9.40825 16.6961 9.48058L14.493 9.9212L12 12.4142V14C12 14.2652 11.8946 14.5196 11.7071 14.7071L10.7071 15.7071C10.3166 16.0976 9.68342 16.0976 9.2929 15.7071L7.92579 14.34L3.6247 17.7809C3.22681 18.0992 2.65321 18.0674 2.2929 17.7071C1.93259 17.3468 1.90083 16.7732 2.21914 16.3753L5.66001 12.0742L4.2929 10.7071C3.90238 10.3166 3.90238 9.68341 4.2929 9.29289L5.2929 8.29289C5.48044 8.10535 5.73479 7.99999 6.00001 7.99999H7.58579L10.0788 5.50698L10.5194 3.30388C10.5918 2.94225 10.8573 2.64977 11.2102 2.5429Z" fill="#4A5568"/>
</svg>
